<svg xmlns="http://www.w3.org/2000/svg" viewBox="0 0 1600 480" width="1600" height="480">
  <defs>
    <radialGradient id="g1" cx="30%" cy="20%"><stop offset="0" stop-color="#ffffff" stop-opacity="0.04"/><stop offset="1" stop-color="#ffffff" stop-opacity="0"/></radialGradient>
    <radialGradient id="g2" cx="70%" cy="80%"><stop offset="0" stop-color="#ffffff" stop-opacity="0.03"/><stop offset="1" stop-color="#ffffff" stop-opacity="0"/></radialGradient>
  </defs>
  <rect width="100%" height="100%" fill="#0a0a09"/>
  <rect width="100%" height="100%" fill="url(#g1)"/>
  <rect width="100%" height="100%" fill="url(#g2)"/>
  <rect x="32" y="32" width="1536" height="416" stroke="#2a2722" stroke-width="1" fill="none"/>
  <g stroke="#b89656" stroke-width="1.5">
    <line x1="32" y1="32" x2="32" y2="56"/><line x1="32" y1="32" x2="56" y2="32"/>
    <line x1="1568" y1="32" x2="1568" y2="56"/><line x1="1568" y1="32" x2="1544" y2="32"/>
    <line x1="32" y1="448" x2="32" y2="424"/><line x1="32" y1="448" x2="56" y2="448"/>
    <line x1="1568" y1="448" x2="1568" y2="424"/><line x1="1568" y1="448" x2="1544" y2="448"/>
  </g>
  <line x1="240" y1="170" x2="1360" y2="170" stroke="#2a2722" stroke-width="1" stroke-dasharray="3 5"/>
  <g transform="translate(800,140)">
    <line x1="-50" y1="34" x2="50" y2="34" stroke="#4a463d" stroke-width="1" stroke-dasharray="2 3"/>
    <path d="M-44 80 V 24 a 44 44 0 0 1 88 0 V 80" stroke="#c8c2b2" stroke-width="2.5" fill="none"/>
    <line x1="-58" y1="80" x2="58" y2="80" stroke="#c8c2b2" stroke-width="2.5"/>
    <circle cx="0" cy="34" r="10" fill="#b89656"/>
    <circle cx="0" cy="34" r="16" stroke="#b89656" stroke-width="0.5" opacity="0.5" fill="none"/>
  </g>
  <text x="800" y="305" text-anchor="middle" font-family="'Cormorant Garamond','EB Garamond',Georgia,serif" font-size="100" fill="#e8e2d2" letter-spacing="10" font-weight="500">Mithraeum</text>
  <text x="800" y="352" text-anchor="middle" font-family="'Cormorant Garamond','EB Garamond',Georgia,serif" font-size="22" fill="#b89656" font-style="italic" letter-spacing="2">tools for the inner chamber</text>
  <text x="800" y="412" text-anchor="middle" font-family="'JetBrains Mono','Fira Code','SF Mono',monospace" font-size="10" fill="#4a463d" letter-spacing="8">— DEUS SOL INVICTUS MITHRAS · MMXXVI —</text>
</svg>
