<svg xmlns="http://www.w3.org/2000/svg" viewBox="0 0 1600 480" width="1600" height="480">
  <defs>
    <radialGradient id="g1" cx="30%" cy="20%"><stop offset="0" stop-color="#ffffff" stop-opacity="0.04"/><stop offset="1" stop-color="#ffffff" stop-opacity="0"/></radialGradient>
    <radialGradient id="g2" cx="70%" cy="80%"><stop offset="0" stop-color="#ffffff" stop-opacity="0.03"/><stop offset="1" stop-color="#ffffff" stop-opacity="0"/></radialGradient>
  </defs>
  <rect width="100%" height="100%" fill="#0a0a09"/>
  <rect width="100%" height="100%" fill="url(#g1)"/>
  <rect width="100%" height="100%" fill="url(#g2)"/>
  <rect x="32" y="32" width="1536" height="416" stroke="#2a2722" stroke-width="1" fill="none"/>
  <g stroke="#b89656" stroke-width="1.5">
    <line x1="32" y1="32" x2="32" y2="56"/><line x1="32" y1="32" x2="56" y2="32"/>
    <line x1="1568" y1="32" x2="1568" y2="56"/><line x1="1568" y1="32" x2="1544" y2="32"/>
    <line x1="32" y1="448" x2="32" y2="424"/><line x1="32" y1="448" x2="56" y2="448"/>
    <line x1="1568" y1="448" x2="1568" y2="424"/><line x1="1568" y1="448" x2="1544" y2="448"/>
  </g>
  <line x1="240" y1="190" x2="1360" y2="190" stroke="#2a2722" stroke-width="1" stroke-dasharray="3 5"/>
  <text x="800" y="124" text-anchor="middle" font-family="'Cormorant Garamond','EB Garamond',Georgia,serif" font-size="13" fill="#4a463d" letter-spacing="16" font-weight="500">— II — AGENT</text>
  <text x="800" y="190" text-anchor="middle" font-family="'Noto Serif JP','Hiragino Mincho ProN','Yu Mincho','Songti SC',serif" font-size="68" fill="#c8c2b2" opacity="0.88">爪</text>
  <text x="800" y="305" text-anchor="middle" font-family="'Cormorant Garamond','EB Garamond',Georgia,serif" font-size="96" fill="#e8e2d2" letter-spacing="6" font-weight="500">hakoCLAW</text>
  <text x="800" y="350" text-anchor="middle" font-family="'Cormorant Garamond','EB Garamond',Georgia,serif" font-size="22" fill="#b89656" font-style="italic" letter-spacing="2">a standalone agent for the inner chamber</text>
  <text x="800" y="412" text-anchor="middle" font-family="'JetBrains Mono','Fira Code','SF Mono',monospace" font-size="10" fill="#4a463d" letter-spacing="8">— ORDO MITHRAEUM · MMXXVI · GPL-3.0 —</text>
  <g stroke="#8a3a1f" stroke-width="2.5" stroke-linecap="round" opacity="0.7">
    <line x1="1280" y1="120" x2="1340" y2="60"/>
    <line x1="1305" y1="140" x2="1365" y2="80"/>
    <line x1="1330" y1="160" x2="1390" y2="100"/>
  </g>
  <g stroke="#8a3a1f" stroke-width="2.5" stroke-linecap="round" opacity="0.7">
    <line x1="220" y1="380" x2="160" y2="320"/>
    <line x1="245" y1="400" x2="185" y2="340"/>
    <line x1="270" y1="420" x2="210" y2="360"/>
  </g>
</svg>
