<svg xmlns="http://www.w3.org/2000/svg" viewBox="0 0 1600 400" width="1600" height="400">
<rect width="100%" height="100%" fill="#f3eee3"/>
<text x="558.00" y="144.78" font-family="'Noto Serif JP', serif" font-size="52.80" fill="#1a1a17" opacity="0.82">箱</text>
<g font-family="'JetBrains Mono', 'Fira Code', 'IBM Plex Mono', 'Cascadia Mono', ui-monospace, monospace" font-size="22" style="font-feature-settings:'calt' 0,'liga' 0;font-kerning:none;"><text x="555.80" y="186.80" text-anchor="middle" fill="#1a1a17">█</text><text x="569.00" y="186.80" text-anchor="middle" fill="#1a1a17">█</text><text x="582.20" y="186.80" text-anchor="middle" fill="#1a1a17">╗</text><text x="621.80" y="186.80" text-anchor="middle" fill="#1a1a17">█</text><text x="635.00" y="186.80" text-anchor="middle" fill="#1a1a17">█</text><text x="648.20" y="186.80" text-anchor="middle" fill="#1a1a17">╗</text><text x="674.60" y="186.80" text-anchor="middle" fill="#1a1a17">█</text><text x="687.80" y="186.80" text-anchor="middle" fill="#1a1a17">█</text><text x="701.00" y="186.80" text-anchor="middle" fill="#1a1a17">█</text><text x="714.20" y="186.80" text-anchor="middle" fill="#1a1a17">█</text><text x="727.40" y="186.80" text-anchor="middle" fill="#1a1a17">█</text><text x="740.60" y="186.80" text-anchor="middle" fill="#1a1a17">╗</text><text x="767.00" y="186.80" text-anchor="middle" fill="#1a1a17">█</text><text x="780.20" y="186.80" text-anchor="middle" fill="#1a1a17">█</text><text x="793.40" y="186.80" text-anchor="middle" fill="#1a1a17">╗</text><text x="833.00" y="186.80" text-anchor="middle" fill="#1a1a17">█</text><text x="846.20" y="186.80" text-anchor="middle" fill="#1a1a17">█</text><text x="859.40" y="186.80" text-anchor="middle" fill="#1a1a17">╗</text><text x="885.80" y="186.80" text-anchor="middle" fill="#1a1a17">█</text><text x="899.00" y="186.80" text-anchor="middle" fill="#1a1a17">█</text><text x="912.20" y="186.80" text-anchor="middle" fill="#1a1a17">█</text><text x="925.40" y="186.80" text-anchor="middle" fill="#1a1a17">█</text><text x="938.60" y="186.80" text-anchor="middle" fill="#1a1a17">█</text><text x="951.80" y="186.80" text-anchor="middle" fill="#1a1a17">█</text><text x="965.00" y="186.80" text-anchor="middle" fill="#1a1a17">╗</text><text x="555.80" y="208.80" text-anchor="middle" fill="#1a1a17">█</text><text x="569.00" y="208.80" text-anchor="middle" fill="#1a1a17">█</text><text x="582.20" y="208.80" text-anchor="middle" fill="#1a1a17">║</text><text x="621.80" y="208.80" text-anchor="middle" fill="#1a1a17">█</text><text x="635.00" y="208.80" text-anchor="middle" fill="#1a1a17">█</text><text x="648.20" y="208.80" text-anchor="middle" fill="#1a1a17">║</text><text x="661.40" y="208.80" text-anchor="middle" fill="#1a1a17">█</text><text x="674.60" y="208.80" text-anchor="middle" fill="#1a1a17">█</text><text x="687.80" y="208.80" text-anchor="middle" fill="#1a1a17">╔</text><text x="701.00" y="208.80" text-anchor="middle" fill="#1a1a17">═</text><text x="714.20" y="208.80" text-anchor="middle" fill="#1a1a17">═</text><text x="727.40" y="208.80" text-anchor="middle" fill="#1a1a17">█</text><text x="740.60" y="208.80" text-anchor="middle" fill="#1a1a17">█</text><text x="753.80" y="208.80" text-anchor="middle" fill="#1a1a17">╗</text><text x="767.00" y="208.80" text-anchor="middle" fill="#1a1a17">█</text><text x="780.20" y="208.80" text-anchor="middle" fill="#1a1a17">█</text><text x="793.40" y="208.80" text-anchor="middle" fill="#1a1a17">║</text><text x="819.80" y="208.80" text-anchor="middle" fill="#1a1a17">█</text><text x="833.00" y="208.80" text-anchor="middle" fill="#1a1a17">█</text><text x="846.20" y="208.80" text-anchor="middle" fill="#1a1a17">╔</text><text x="859.40" y="208.80" text-anchor="middle" fill="#1a1a17">╝</text><text x="872.60" y="208.80" text-anchor="middle" fill="#1a1a17">█</text><text x="885.80" y="208.80" text-anchor="middle" fill="#1a1a17">█</text><text x="899.00" y="208.80" text-anchor="middle" fill="#1a1a17">╔</text><text x="912.20" y="208.80" text-anchor="middle" fill="#1a1a17">═</text><text x="925.40" y="208.80" text-anchor="middle" fill="#1a1a17">═</text><text x="938.60" y="208.80" text-anchor="middle" fill="#1a1a17">═</text><text x="951.80" y="208.80" text-anchor="middle" fill="#1a1a17">█</text><text x="965.00" y="208.80" text-anchor="middle" fill="#1a1a17">█</text><text x="978.20" y="208.80" text-anchor="middle" fill="#1a1a17">╗</text><text x="555.80" y="230.80" text-anchor="middle" fill="#1a1a17">█</text><text x="569.00" y="230.80" text-anchor="middle" fill="#1a1a17">█</text><text x="582.20" y="230.80" text-anchor="middle" fill="#1a1a17">█</text><text x="595.40" y="230.80" text-anchor="middle" fill="#1a1a17">█</text><text x="608.60" y="230.80" text-anchor="middle" fill="#1a1a17">█</text><text x="621.80" y="230.80" text-anchor="middle" fill="#1a1a17">█</text><text x="635.00" y="230.80" text-anchor="middle" fill="#1a1a17">█</text><text x="648.20" y="230.80" text-anchor="middle" fill="#1a1a17">║</text><text x="661.40" y="230.80" text-anchor="middle" fill="#1a1a17">█</text><text x="674.60" y="230.80" text-anchor="middle" fill="#1a1a17">█</text><text x="687.80" y="230.80" text-anchor="middle" fill="#1a1a17">█</text><text x="701.00" y="230.80" text-anchor="middle" fill="#1a1a17">█</text><text x="714.20" y="230.80" text-anchor="middle" fill="#1a1a17">█</text><text x="727.40" y="230.80" text-anchor="middle" fill="#1a1a17">█</text><text x="740.60" y="230.80" text-anchor="middle" fill="#1a1a17">█</text><text x="753.80" y="230.80" text-anchor="middle" fill="#1a1a17">║</text><text x="767.00" y="230.80" text-anchor="middle" fill="#1a1a17">█</text><text x="780.20" y="230.80" text-anchor="middle" fill="#1a1a17">█</text><text x="793.40" y="230.80" text-anchor="middle" fill="#1a1a17">█</text><text x="806.60" y="230.80" text-anchor="middle" fill="#1a1a17">█</text><text x="819.80" y="230.80" text-anchor="middle" fill="#1a1a17">█</text><text x="833.00" y="230.80" text-anchor="middle" fill="#1a1a17">╔</text><text x="846.20" y="230.80" text-anchor="middle" fill="#1a1a17">╝</text><text x="872.60" y="230.80" text-anchor="middle" fill="#1a1a17">█</text><text x="885.80" y="230.80" text-anchor="middle" fill="#1a1a17">█</text><text x="899.00" y="230.80" text-anchor="middle" fill="#1a1a17">║</text><text x="951.80" y="230.80" text-anchor="middle" fill="#1a1a17">█</text><text x="965.00" y="230.80" text-anchor="middle" fill="#1a1a17">█</text><text x="978.20" y="230.80" text-anchor="middle" fill="#1a1a17">║</text><text x="555.80" y="252.80" text-anchor="middle" fill="#1a1a17">█</text><text x="569.00" y="252.80" text-anchor="middle" fill="#1a1a17">█</text><text x="582.20" y="252.80" text-anchor="middle" fill="#1a1a17">╔</text><text x="595.40" y="252.80" text-anchor="middle" fill="#1a1a17">═</text><text x="608.60" y="252.80" text-anchor="middle" fill="#1a1a17">═</text><text x="621.80" y="252.80" text-anchor="middle" fill="#1a1a17">█</text><text x="635.00" y="252.80" text-anchor="middle" fill="#1a1a17">█</text><text x="648.20" y="252.80" text-anchor="middle" fill="#1a1a17">║</text><text x="661.40" y="252.80" text-anchor="middle" fill="#1a1a17">█</text><text x="674.60" y="252.80" text-anchor="middle" fill="#1a1a17">█</text><text x="687.80" y="252.80" text-anchor="middle" fill="#1a1a17">╔</text><text x="701.00" y="252.80" text-anchor="middle" fill="#1a1a17">═</text><text x="714.20" y="252.80" text-anchor="middle" fill="#1a1a17">═</text><text x="727.40" y="252.80" text-anchor="middle" fill="#1a1a17">█</text><text x="740.60" y="252.80" text-anchor="middle" fill="#1a1a17">█</text><text x="753.80" y="252.80" text-anchor="middle" fill="#1a1a17">║</text><text x="767.00" y="252.80" text-anchor="middle" fill="#1a1a17">█</text><text x="780.20" y="252.80" text-anchor="middle" fill="#1a1a17">█</text><text x="793.40" y="252.80" text-anchor="middle" fill="#1a1a17">╔</text><text x="806.60" y="252.80" text-anchor="middle" fill="#1a1a17">═</text><text x="819.80" y="252.80" text-anchor="middle" fill="#1a1a17">█</text><text x="833.00" y="252.80" text-anchor="middle" fill="#1a1a17">█</text><text x="846.20" y="252.80" text-anchor="middle" fill="#1a1a17">╗</text><text x="872.60" y="252.80" text-anchor="middle" fill="#1a1a17">█</text><text x="885.80" y="252.80" text-anchor="middle" fill="#1a1a17">█</text><text x="899.00" y="252.80" text-anchor="middle" fill="#1a1a17">║</text><text x="951.80" y="252.80" text-anchor="middle" fill="#1a1a17">█</text><text x="965.00" y="252.80" text-anchor="middle" fill="#1a1a17">█</text><text x="978.20" y="252.80" text-anchor="middle" fill="#1a1a17">║</text><text x="555.80" y="274.80" text-anchor="middle" fill="#1a1a17">█</text><text x="569.00" y="274.80" text-anchor="middle" fill="#1a1a17">█</text><text x="582.20" y="274.80" text-anchor="middle" fill="#1a1a17">║</text><text x="621.80" y="274.80" text-anchor="middle" fill="#1a1a17">█</text><text x="635.00" y="274.80" text-anchor="middle" fill="#1a1a17">█</text><text x="648.20" y="274.80" text-anchor="middle" fill="#1a1a17">║</text><text x="661.40" y="274.80" text-anchor="middle" fill="#1a1a17">█</text><text x="674.60" y="274.80" text-anchor="middle" fill="#1a1a17">█</text><text x="687.80" y="274.80" text-anchor="middle" fill="#1a1a17">║</text><text x="727.40" y="274.80" text-anchor="middle" fill="#1a1a17">█</text><text x="740.60" y="274.80" text-anchor="middle" fill="#1a1a17">█</text><text x="753.80" y="274.80" text-anchor="middle" fill="#1a1a17">║</text><text x="767.00" y="274.80" text-anchor="middle" fill="#1a1a17">█</text><text x="780.20" y="274.80" text-anchor="middle" fill="#1a1a17">█</text><text x="793.40" y="274.80" text-anchor="middle" fill="#1a1a17">║</text><text x="833.00" y="274.80" text-anchor="middle" fill="#1a1a17">█</text><text x="846.20" y="274.80" text-anchor="middle" fill="#1a1a17">█</text><text x="859.40" y="274.80" text-anchor="middle" fill="#1a1a17">╗</text><text x="872.60" y="274.80" text-anchor="middle" fill="#1a1a17">╚</text><text x="885.80" y="274.80" text-anchor="middle" fill="#1a1a17">█</text><text x="899.00" y="274.80" text-anchor="middle" fill="#1a1a17">█</text><text x="912.20" y="274.80" text-anchor="middle" fill="#1a1a17">█</text><text x="925.40" y="274.80" text-anchor="middle" fill="#1a1a17">█</text><text x="938.60" y="274.80" text-anchor="middle" fill="#1a1a17">█</text><text x="951.80" y="274.80" text-anchor="middle" fill="#1a1a17">█</text><text x="965.00" y="274.80" text-anchor="middle" fill="#1a1a17">╔</text><text x="978.20" y="274.80" text-anchor="middle" fill="#1a1a17">╝</text><text x="555.80" y="296.80" text-anchor="middle" fill="#1a1a17">╚</text><text x="569.00" y="296.80" text-anchor="middle" fill="#1a1a17">═</text><text x="582.20" y="296.80" text-anchor="middle" fill="#1a1a17">╝</text><text x="621.80" y="296.80" text-anchor="middle" fill="#1a1a17">╚</text><text x="635.00" y="296.80" text-anchor="middle" fill="#1a1a17">═</text><text x="648.20" y="296.80" text-anchor="middle" fill="#1a1a17">╝</text><text x="661.40" y="296.80" text-anchor="middle" fill="#1a1a17">╚</text><text x="674.60" y="296.80" text-anchor="middle" fill="#1a1a17">═</text><text x="687.80" y="296.80" text-anchor="middle" fill="#1a1a17">╝</text><text x="727.40" y="296.80" text-anchor="middle" fill="#1a1a17">╚</text><text x="740.60" y="296.80" text-anchor="middle" fill="#1a1a17">═</text><text x="753.80" y="296.80" text-anchor="middle" fill="#1a1a17">╝</text><text x="767.00" y="296.80" text-anchor="middle" fill="#1a1a17">╚</text><text x="780.20" y="296.80" text-anchor="middle" fill="#1a1a17">═</text><text x="793.40" y="296.80" text-anchor="middle" fill="#1a1a17">╝</text><text x="833.00" y="296.80" text-anchor="middle" fill="#1a1a17">╚</text><text x="846.20" y="296.80" text-anchor="middle" fill="#1a1a17">═</text><text x="859.40" y="296.80" text-anchor="middle" fill="#1a1a17">╝</text><text x="885.80" y="296.80" text-anchor="middle" fill="#1a1a17">╚</text><text x="899.00" y="296.80" text-anchor="middle" fill="#1a1a17">═</text><text x="912.20" y="296.80" text-anchor="middle" fill="#1a1a17">═</text><text x="925.40" y="296.80" text-anchor="middle" fill="#1a1a17">═</text><text x="938.60" y="296.80" text-anchor="middle" fill="#1a1a17">═</text><text x="951.80" y="296.80" text-anchor="middle" fill="#1a1a17">═</text><text x="965.00" y="296.80" text-anchor="middle" fill="#1a1a17">╝</text></g>
<rect x="1006.80" y="220.90" width="26.40" height="79.20" fill="#7a8a3a"><animate attributeName="opacity" values="1;1;0;0" keyTimes="0;0.5;0.5;1" dur="1.06s" repeatCount="indefinite"/></rect>
</svg>