<svg xmlns="http://www.w3.org/2000/svg" viewBox="0 0 344.00 120.00" width="344" height="120">


<g font-family="'JetBrains Mono', 'Fira Code', 'IBM Plex Mono', 'Cascadia Mono', ui-monospace, monospace" font-size="14.00" font-weight="400" style="font-feature-settings: 'calt' 0, 'liga' 0; font-kerning: none;">
<text x="4.20" y="29.90" text-anchor="middle" fill="#1a1a17">█</text><text x="12.60" y="29.90" text-anchor="middle" fill="#1a1a17">█</text><text x="21.00" y="29.90" text-anchor="middle" fill="#1a1a17">╗</text><text x="46.20" y="29.90" text-anchor="middle" fill="#1a1a17">█</text><text x="54.60" y="29.90" text-anchor="middle" fill="#1a1a17">█</text><text x="63.00" y="29.90" text-anchor="middle" fill="#1a1a17">╗</text><text x="79.80" y="29.90" text-anchor="middle" fill="#1a1a17">█</text><text x="88.20" y="29.90" text-anchor="middle" fill="#1a1a17">█</text><text x="96.60" y="29.90" text-anchor="middle" fill="#1a1a17">█</text><text x="105.00" y="29.90" text-anchor="middle" fill="#1a1a17">█</text><text x="113.40" y="29.90" text-anchor="middle" fill="#1a1a17">█</text><text x="121.80" y="29.90" text-anchor="middle" fill="#1a1a17">╗</text><text x="138.60" y="29.90" text-anchor="middle" fill="#1a1a17">█</text><text x="147.00" y="29.90" text-anchor="middle" fill="#1a1a17">█</text><text x="155.40" y="29.90" text-anchor="middle" fill="#1a1a17">╗</text><text x="180.60" y="29.90" text-anchor="middle" fill="#1a1a17">█</text><text x="189.00" y="29.90" text-anchor="middle" fill="#1a1a17">█</text><text x="197.40" y="29.90" text-anchor="middle" fill="#1a1a17">╗</text><text x="214.20" y="29.90" text-anchor="middle" fill="#1a1a17">█</text><text x="222.60" y="29.90" text-anchor="middle" fill="#1a1a17">█</text><text x="231.00" y="29.90" text-anchor="middle" fill="#1a1a17">█</text><text x="239.40" y="29.90" text-anchor="middle" fill="#1a1a17">█</text><text x="247.80" y="29.90" text-anchor="middle" fill="#1a1a17">█</text><text x="256.20" y="29.90" text-anchor="middle" fill="#1a1a17">█</text><text x="264.60" y="29.90" text-anchor="middle" fill="#1a1a17">╗</text><text x="4.20" y="43.90" text-anchor="middle" fill="#1a1a17">█</text><text x="12.60" y="43.90" text-anchor="middle" fill="#1a1a17">█</text><text x="21.00" y="43.90" text-anchor="middle" fill="#1a1a17">║</text><text x="46.20" y="43.90" text-anchor="middle" fill="#1a1a17">█</text><text x="54.60" y="43.90" text-anchor="middle" fill="#1a1a17">█</text><text x="63.00" y="43.90" text-anchor="middle" fill="#1a1a17">║</text><text x="71.40" y="43.90" text-anchor="middle" fill="#1a1a17">█</text><text x="79.80" y="43.90" text-anchor="middle" fill="#1a1a17">█</text><text x="88.20" y="43.90" text-anchor="middle" fill="#1a1a17">╔</text><text x="96.60" y="43.90" text-anchor="middle" fill="#1a1a17">═</text><text x="105.00" y="43.90" text-anchor="middle" fill="#1a1a17">═</text><text x="113.40" y="43.90" text-anchor="middle" fill="#1a1a17">█</text><text x="121.80" y="43.90" text-anchor="middle" fill="#1a1a17">█</text><text x="130.20" y="43.90" text-anchor="middle" fill="#1a1a17">╗</text><text x="138.60" y="43.90" text-anchor="middle" fill="#1a1a17">█</text><text x="147.00" y="43.90" text-anchor="middle" fill="#1a1a17">█</text><text x="155.40" y="43.90" text-anchor="middle" fill="#1a1a17">║</text><text x="172.20" y="43.90" text-anchor="middle" fill="#1a1a17">█</text><text x="180.60" y="43.90" text-anchor="middle" fill="#1a1a17">█</text><text x="189.00" y="43.90" text-anchor="middle" fill="#1a1a17">╔</text><text x="197.40" y="43.90" text-anchor="middle" fill="#1a1a17">╝</text><text x="205.80" y="43.90" text-anchor="middle" fill="#1a1a17">█</text><text x="214.20" y="43.90" text-anchor="middle" fill="#1a1a17">█</text><text x="222.60" y="43.90" text-anchor="middle" fill="#1a1a17">╔</text><text x="231.00" y="43.90" text-anchor="middle" fill="#1a1a17">═</text><text x="239.40" y="43.90" text-anchor="middle" fill="#1a1a17">═</text><text x="247.80" y="43.90" text-anchor="middle" fill="#1a1a17">═</text><text x="256.20" y="43.90" text-anchor="middle" fill="#1a1a17">█</text><text x="264.60" y="43.90" text-anchor="middle" fill="#1a1a17">█</text><text x="273.00" y="43.90" text-anchor="middle" fill="#1a1a17">╗</text><text x="4.20" y="57.90" text-anchor="middle" fill="#1a1a17">█</text><text x="12.60" y="57.90" text-anchor="middle" fill="#1a1a17">█</text><text x="21.00" y="57.90" text-anchor="middle" fill="#1a1a17">█</text><text x="29.40" y="57.90" text-anchor="middle" fill="#1a1a17">█</text><text x="37.80" y="57.90" text-anchor="middle" fill="#1a1a17">█</text><text x="46.20" y="57.90" text-anchor="middle" fill="#1a1a17">█</text><text x="54.60" y="57.90" text-anchor="middle" fill="#1a1a17">█</text><text x="63.00" y="57.90" text-anchor="middle" fill="#1a1a17">║</text><text x="71.40" y="57.90" text-anchor="middle" fill="#1a1a17">█</text><text x="79.80" y="57.90" text-anchor="middle" fill="#1a1a17">█</text><text x="88.20" y="57.90" text-anchor="middle" fill="#1a1a17">█</text><text x="96.60" y="57.90" text-anchor="middle" fill="#1a1a17">█</text><text x="105.00" y="57.90" text-anchor="middle" fill="#1a1a17">█</text><text x="113.40" y="57.90" text-anchor="middle" fill="#1a1a17">█</text><text x="121.80" y="57.90" text-anchor="middle" fill="#1a1a17">█</text><text x="130.20" y="57.90" text-anchor="middle" fill="#1a1a17">║</text><text x="138.60" y="57.90" text-anchor="middle" fill="#1a1a17">█</text><text x="147.00" y="57.90" text-anchor="middle" fill="#1a1a17">█</text><text x="155.40" y="57.90" text-anchor="middle" fill="#1a1a17">█</text><text x="163.80" y="57.90" text-anchor="middle" fill="#1a1a17">█</text><text x="172.20" y="57.90" text-anchor="middle" fill="#1a1a17">█</text><text x="180.60" y="57.90" text-anchor="middle" fill="#1a1a17">╔</text><text x="189.00" y="57.90" text-anchor="middle" fill="#1a1a17">╝</text><text x="205.80" y="57.90" text-anchor="middle" fill="#1a1a17">█</text><text x="214.20" y="57.90" text-anchor="middle" fill="#1a1a17">█</text><text x="222.60" y="57.90" text-anchor="middle" fill="#1a1a17">║</text><text x="256.20" y="57.90" text-anchor="middle" fill="#1a1a17">█</text><text x="264.60" y="57.90" text-anchor="middle" fill="#1a1a17">█</text><text x="273.00" y="57.90" text-anchor="middle" fill="#1a1a17">║</text><text x="4.20" y="71.90" text-anchor="middle" fill="#1a1a17">█</text><text x="12.60" y="71.90" text-anchor="middle" fill="#1a1a17">█</text><text x="21.00" y="71.90" text-anchor="middle" fill="#1a1a17">╔</text><text x="29.40" y="71.90" text-anchor="middle" fill="#1a1a17">═</text><text x="37.80" y="71.90" text-anchor="middle" fill="#1a1a17">═</text><text x="46.20" y="71.90" text-anchor="middle" fill="#1a1a17">█</text><text x="54.60" y="71.90" text-anchor="middle" fill="#1a1a17">█</text><text x="63.00" y="71.90" text-anchor="middle" fill="#1a1a17">║</text><text x="71.40" y="71.90" text-anchor="middle" fill="#1a1a17">█</text><text x="79.80" y="71.90" text-anchor="middle" fill="#1a1a17">█</text><text x="88.20" y="71.90" text-anchor="middle" fill="#1a1a17">╔</text><text x="96.60" y="71.90" text-anchor="middle" fill="#1a1a17">═</text><text x="105.00" y="71.90" text-anchor="middle" fill="#1a1a17">═</text><text x="113.40" y="71.90" text-anchor="middle" fill="#1a1a17">█</text><text x="121.80" y="71.90" text-anchor="middle" fill="#1a1a17">█</text><text x="130.20" y="71.90" text-anchor="middle" fill="#1a1a17">║</text><text x="138.60" y="71.90" text-anchor="middle" fill="#1a1a17">█</text><text x="147.00" y="71.90" text-anchor="middle" fill="#1a1a17">█</text><text x="155.40" y="71.90" text-anchor="middle" fill="#1a1a17">╔</text><text x="163.80" y="71.90" text-anchor="middle" fill="#1a1a17">═</text><text x="172.20" y="71.90" text-anchor="middle" fill="#1a1a17">█</text><text x="180.60" y="71.90" text-anchor="middle" fill="#1a1a17">█</text><text x="189.00" y="71.90" text-anchor="middle" fill="#1a1a17">╗</text><text x="205.80" y="71.90" text-anchor="middle" fill="#1a1a17">█</text><text x="214.20" y="71.90" text-anchor="middle" fill="#1a1a17">█</text><text x="222.60" y="71.90" text-anchor="middle" fill="#1a1a17">║</text><text x="256.20" y="71.90" text-anchor="middle" fill="#1a1a17">█</text><text x="264.60" y="71.90" text-anchor="middle" fill="#1a1a17">█</text><text x="273.00" y="71.90" text-anchor="middle" fill="#1a1a17">║</text><text x="4.20" y="85.90" text-anchor="middle" fill="#1a1a17">█</text><text x="12.60" y="85.90" text-anchor="middle" fill="#1a1a17">█</text><text x="21.00" y="85.90" text-anchor="middle" fill="#1a1a17">║</text><text x="46.20" y="85.90" text-anchor="middle" fill="#1a1a17">█</text><text x="54.60" y="85.90" text-anchor="middle" fill="#1a1a17">█</text><text x="63.00" y="85.90" text-anchor="middle" fill="#1a1a17">║</text><text x="71.40" y="85.90" text-anchor="middle" fill="#1a1a17">█</text><text x="79.80" y="85.90" text-anchor="middle" fill="#1a1a17">█</text><text x="88.20" y="85.90" text-anchor="middle" fill="#1a1a17">║</text><text x="113.40" y="85.90" text-anchor="middle" fill="#1a1a17">█</text><text x="121.80" y="85.90" text-anchor="middle" fill="#1a1a17">█</text><text x="130.20" y="85.90" text-anchor="middle" fill="#1a1a17">║</text><text x="138.60" y="85.90" text-anchor="middle" fill="#1a1a17">█</text><text x="147.00" y="85.90" text-anchor="middle" fill="#1a1a17">█</text><text x="155.40" y="85.90" text-anchor="middle" fill="#1a1a17">║</text><text x="180.60" y="85.90" text-anchor="middle" fill="#1a1a17">█</text><text x="189.00" y="85.90" text-anchor="middle" fill="#1a1a17">█</text><text x="197.40" y="85.90" text-anchor="middle" fill="#1a1a17">╗</text><text x="205.80" y="85.90" text-anchor="middle" fill="#1a1a17">╚</text><text x="214.20" y="85.90" text-anchor="middle" fill="#1a1a17">█</text><text x="222.60" y="85.90" text-anchor="middle" fill="#1a1a17">█</text><text x="231.00" y="85.90" text-anchor="middle" fill="#1a1a17">█</text><text x="239.40" y="85.90" text-anchor="middle" fill="#1a1a17">█</text><text x="247.80" y="85.90" text-anchor="middle" fill="#1a1a17">█</text><text x="256.20" y="85.90" text-anchor="middle" fill="#1a1a17">█</text><text x="264.60" y="85.90" text-anchor="middle" fill="#1a1a17">╔</text><text x="273.00" y="85.90" text-anchor="middle" fill="#1a1a17">╝</text><text x="4.20" y="99.90" text-anchor="middle" fill="#1a1a17">╚</text><text x="12.60" y="99.90" text-anchor="middle" fill="#1a1a17">═</text><text x="21.00" y="99.90" text-anchor="middle" fill="#1a1a17">╝</text><text x="46.20" y="99.90" text-anchor="middle" fill="#1a1a17">╚</text><text x="54.60" y="99.90" text-anchor="middle" fill="#1a1a17">═</text><text x="63.00" y="99.90" text-anchor="middle" fill="#1a1a17">╝</text><text x="71.40" y="99.90" text-anchor="middle" fill="#1a1a17">╚</text><text x="79.80" y="99.90" text-anchor="middle" fill="#1a1a17">═</text><text x="88.20" y="99.90" text-anchor="middle" fill="#1a1a17">╝</text><text x="113.40" y="99.90" text-anchor="middle" fill="#1a1a17">╚</text><text x="121.80" y="99.90" text-anchor="middle" fill="#1a1a17">═</text><text x="130.20" y="99.90" text-anchor="middle" fill="#1a1a17">╝</text><text x="138.60" y="99.90" text-anchor="middle" fill="#1a1a17">╚</text><text x="147.00" y="99.90" text-anchor="middle" fill="#1a1a17">═</text><text x="155.40" y="99.90" text-anchor="middle" fill="#1a1a17">╝</text><text x="180.60" y="99.90" text-anchor="middle" fill="#1a1a17">╚</text><text x="189.00" y="99.90" text-anchor="middle" fill="#1a1a17">═</text><text x="197.40" y="99.90" text-anchor="middle" fill="#1a1a17">╝</text><text x="214.20" y="99.90" text-anchor="middle" fill="#1a1a17">╚</text><text x="222.60" y="99.90" text-anchor="middle" fill="#1a1a17">═</text><text x="231.00" y="99.90" text-anchor="middle" fill="#1a1a17">═</text><text x="239.40" y="99.90" text-anchor="middle" fill="#1a1a17">═</text><text x="247.80" y="99.90" text-anchor="middle" fill="#1a1a17">═</text><text x="256.20" y="99.90" text-anchor="middle" fill="#1a1a17">═</text><text x="264.60" y="99.90" text-anchor="middle" fill="#1a1a17">╝</text>
</g>
<rect x="309.20" y="51.60" width="16.80" height="50.40" fill="#7a8a3a"><animate attributeName="opacity" values="1;1;0;0" keyTimes="0;0.5;0.5;1" dur="1.06s" repeatCount="indefinite"/></rect>
</svg>